<svg xmlns="http://www.w3.org/2000/svg" viewBox="0 0 720 380" font-family="-apple-system, BlinkMacSystemFont, 'Segoe UI', Roboto, Helvetica, Arial, sans-serif">
  <rect x="1" y="1" width="718" height="378" rx="14" fill="#fcfcfb" stroke="#e6e5e1" stroke-width="1"/>

  <!-- header -->
  <text x="40" y="34" font-size="17" font-weight="700" fill="#0b0b0b">Leaky vs fixed HTTP client</text>
  <text x="40" y="55" font-size="12.5" fill="#52514e">2,000 sequential requests: a new http.Transport per call vs one shared client</text>

  <!-- legend -->
  <rect x="520" y="26" width="12" height="12" rx="3" fill="#eb6834"/>
  <text x="538" y="36" font-size="12.5" fill="#52514e">Leaky</text>
  <rect x="600" y="26" width="12" height="12" rx="3" fill="#2a78d6"/>
  <text x="618" y="36" font-size="12.5" fill="#52514e">Fixed</text>

  <!-- panel titles -->
  <text x="180" y="72" font-size="13.5" font-weight="600" text-anchor="middle" fill="#0b0b0b">Goroutines leaked</text>
  <text x="540" y="72" font-size="13.5" font-weight="600" text-anchor="middle" fill="#0b0b0b">Heap in use</text>

  <!-- baselines -->
  <line x1="60" y1="330" x2="320" y2="330" stroke="#e0e0dc" stroke-width="2"/>
  <line x1="400" y1="330" x2="660" y2="330" stroke="#e0e0dc" stroke-width="2"/>

  <!-- goroutines: leaky 6000, fixed 3 -->
  <path d="M103,330 L103,100 Q103,96 107,96 L163,96 Q167,96 167,100 L167,330 Z" fill="#eb6834"/>
  <path d="M193,330 L193,328 Q193,326 195,326 L255,326 Q257,326 257,328 L257,330 Z" fill="#2a78d6"/>
  <text x="135" y="90" font-size="14" font-weight="700" text-anchor="middle" fill="#0b0b0b">6,000</text>
  <text x="225" y="320" font-size="13" font-weight="700" text-anchor="middle" fill="#0b0b0b">3</text>
  <text x="135" y="348" font-size="12.5" text-anchor="middle" fill="#52514e">Leaky</text>
  <text x="225" y="348" font-size="12.5" text-anchor="middle" fill="#52514e">Fixed</text>

  <!-- heap: leaky 52.8 MB, fixed 1.4 MB -->
  <path d="M463,330 L463,100 Q463,96 467,96 L523,96 Q527,96 527,100 L527,330 Z" fill="#eb6834"/>
  <path d="M553,330 L553,327 Q553,324 556,324 L614,324 Q617,324 617,327 L617,330 Z" fill="#2a78d6"/>
  <text x="495" y="90" font-size="14" font-weight="700" text-anchor="middle" fill="#0b0b0b">52.8 MB</text>
  <text x="585" y="317" font-size="13" font-weight="700" text-anchor="middle" fill="#0b0b0b">1.4 MB</text>
  <text x="495" y="348" font-size="12.5" text-anchor="middle" fill="#52514e">Leaky</text>
  <text x="585" y="348" font-size="12.5" text-anchor="middle" fill="#52514e">Fixed</text>
</svg>
